<?xml version="1.0" standalone="no"?>
<!DOCTYPE svg PUBLIC "-//W3C//DTD SVG 20010904//EN"
 "http://www.w3.org/TR/2001/REC-SVG-20010904/DTD/svg10.dtd">
<svg version="1.0" xmlns="http://www.w3.org/2000/svg"
 width="256.000000pt" height="256.000000pt" viewBox="0 0 256.000000 256.000000"
 preserveAspectRatio="xMidYMid meet">
<metadata>
Created by potrace 1.14, written by Peter Selinger 2001-2017
</metadata>
<g transform="translate(0.000000,256.000000) scale(0.100000,-0.100000)"
fill="#000000" stroke="none">
<path d="M1423 2533 c-7 -2 -13 -9 -13 -14 0 -6 6 -7 13 -3 9 6 9 4 -1 -8 -10
-13 -10 -17 4 -22 9 -3 21 -3 26 1 7 3 8 1 4 -5 -4 -7 -2 -12 4 -12 6 0 9 -4
6 -9 -3 -5 2 -8 12 -7 9 0 16 -5 14 -12 -1 -8 2 -11 8 -7 5 3 10 1 10 -5 0 -6
5 -8 10 -5 6 3 10 0 10 -8 0 -16 46 -58 55 -49 3 4 3 -2 -1 -12 -5 -14 -4 -17
4 -12 11 7 17 -6 13 -28 -1 -5 6 -3 15 5 14 11 16 11 10 1 -5 -9 1 -23 16 -40
14 -15 28 -35 31 -45 4 -11 12 -15 18 -11 7 4 9 3 6 -3 -4 -5 3 -19 13 -31 11
-12 20 -28 20 -37 0 -9 5 -13 10 -10 6 3 10 -2 10 -12 0 -10 10 -29 23 -43 13
-14 21 -32 19 -39 -3 -9 0 -12 11 -8 11 4 13 0 9 -15 -4 -17 -2 -20 12 -15 9
4 14 3 11 -2 -3 -5 -1 -12 3 -15 5 -3 14 11 20 30 9 31 8 35 -5 30 -11 -4 -14
-2 -9 9 3 9 -3 24 -13 34 -11 11 -17 22 -13 25 3 3 0 6 -7 6 -7 0 -9 5 -6 10
3 6 -1 10 -9 10 -10 0 -13 6 -9 17 4 11 3 14 -5 9 -7 -4 -12 -1 -12 9 0 20
-25 47 -34 37 -4 -3 -4 1 0 11 4 12 1 17 -12 18 -12 0 -14 3 -6 6 9 4 7 10 -7
22 -12 10 -17 22 -13 26 4 5 -1 5 -11 2 -10 -4 -16 -3 -12 2 3 5 1 12 -5 16
-6 4 -8 10 -5 15 3 5 -4 11 -15 15 -11 3 -20 10 -20 14 0 5 -13 22 -30 39 -16
18 -30 37 -30 42 0 6 -4 9 -8 6 -5 -3 -14 4 -22 14 -8 10 -17 17 -22 14 -4 -3
-8 3 -8 12 0 10 -3 14 -7 11 -3 -4 -12 1 -20 11 -9 10 -12 11 -7 2 6 -11 2
-10 -13 3 -21 18 -21 18 -40 10z"/>
<path d="M1338 2352 c3 -10 1 -13 -6 -8 -19 12 -14 -1 12 -28 13 -15 28 -26
35 -26 6 0 11 -6 11 -12 0 -9 4 -8 10 2 8 12 10 11 10 -7 0 -14 6 -23 15 -23
8 0 15 -4 15 -8 0 -16 37 -52 45 -44 5 4 5 2 2 -4 -4 -7 6 -26 22 -43 16 -17
27 -31 23 -31 -3 0 5 -8 16 -19 12 -10 19 -21 15 -25 -3 -3 -1 -6 6 -6 7 0 10
-3 8 -7 -6 -10 18 -34 27 -27 3 2 4 1 1 -3 -3 -3 6 -25 20 -48 13 -23 21 -45
18 -49 -10 -10 41 -7 57 4 10 6 11 10 2 10 -6 0 -11 3 -11 8 3 20 -2 32 -16
32 -8 0 -12 6 -9 13 3 8 -2 20 -10 27 -9 7 -13 17 -9 23 4 6 0 8 -10 4 -11 -4
-14 -2 -10 9 3 9 -3 21 -16 30 -11 8 -21 21 -21 29 0 8 -10 21 -22 29 -15 11
-18 16 -8 16 10 1 7 5 -7 13 -12 7 -22 16 -22 20 -1 14 -28 36 -36 29 -5 -4
-5 -2 -1 5 3 6 -4 19 -16 27 -12 9 -19 16 -15 16 13 0 -15 23 -46 39 -15 8
-23 17 -17 21 5 3 -8 11 -29 16 -33 9 -38 9 -33 -4z"/>
<path d="M900 2299 c0 -5 -8 -9 -18 -9 -11 0 -25 -14 -35 -35 -19 -41 -22 -85
-6 -85 6 0 9 -9 6 -20 -3 -13 0 -20 8 -20 8 0 12 -8 10 -20 -2 -13 2 -20 11
-20 12 0 19 -14 12 -23 -3 -3 13 -23 43 -55 9 -9 19 -25 22 -35 4 -10 12 -15
17 -12 6 4 9 1 8 -7 -2 -7 2 -12 9 -11 7 2 10 -6 8 -17 -2 -11 -1 -19 3 -19
17 3 32 -2 31 -8 -3 -20 2 -34 10 -29 5 3 11 -4 14 -15 3 -11 15 -23 26 -26
11 -3 18 -9 16 -14 -3 -4 4 -13 15 -19 11 -6 20 -18 20 -26 0 -8 5 -12 10 -9
6 3 10 -1 10 -9 0 -8 9 -18 20 -21 11 -3 20 -15 20 -26 0 -10 3 -18 8 -17 10
4 91 -80 84 -87 -3 -3 0 -5 6 -5 7 0 12 -7 12 -15 0 -9 9 -15 21 -15 15 0 19
-5 15 -16 -3 -8 -2 -12 3 -9 5 3 12 -4 16 -15 4 -11 11 -18 16 -15 5 3 6 -1 3
-9 -3 -9 -8 -16 -11 -16 -10 0 -32 28 -26 34 4 3 -1 6 -11 6 -9 0 -14 5 -11
10 3 6 2 10 -4 10 -10 0 -61 46 -61 55 0 6 -27 33 -69 68 -18 15 -30 27 -26
27 3 0 -7 12 -22 26 -15 15 -27 30 -25 35 1 5 -2 9 -8 9 -5 0 -38 28 -72 63
-34 34 -66 61 -71 59 -5 -1 -6 2 -3 7 3 5 -1 14 -9 21 -8 7 -12 17 -8 23 3 5
2 7 -4 4 -5 -3 -25 11 -45 31 -19 20 -43 43 -54 50 -10 7 -12 10 -4 6 9 -4 7
1 -5 13 -11 11 -23 19 -27 16 -5 -2 -8 3 -8 11 0 9 -5 16 -11 16 -7 0 -22 11
-35 26 -13 14 -24 22 -24 18 0 -4 -7 1 -16 12 -8 10 -13 12 -9 4 3 -8 -2 -5
-11 8 -9 12 -24 22 -33 22 -9 0 -22 5 -29 12 -8 8 -15 8 -28 -3 -10 -8 -15 -9
-11 -3 3 6 0 11 -8 11 -8 0 -12 -4 -9 -9 5 -7 -18 -12 -38 -9 -8 1 -12 -15 -9
-31 1 -8 -15 -12 -32 -9 -5 1 -6 -3 -2 -9 3 -5 1 -19 -5 -30 -8 -15 -8 -20 2
-20 10 0 9 -3 -1 -9 -13 -8 -13 -12 0 -27 10 -13 10 -16 1 -10 -11 7 -11 4 0
-15 7 -13 17 -27 21 -30 5 -3 8 -10 6 -14 -2 -7 14 -33 44 -67 9 -12 17 -27
17 -35 0 -8 4 -11 10 -8 5 3 15 -5 21 -19 7 -14 16 -23 20 -20 5 3 9 1 9 -5 0
-6 16 -26 35 -46 20 -19 34 -35 31 -35 -2 0 19 -24 47 -52 29 -29 51 -56 49
-61 -1 -5 2 -6 7 -3 5 3 15 -2 22 -11 12 -14 12 -16 0 -8 -10 5 -12 4 -7 -3 4
-7 14 -12 22 -12 8 0 14 -7 14 -16 0 -8 5 -12 10 -9 6 3 10 2 10 -3 0 -6 27
-38 60 -72 33 -34 60 -66 60 -71 0 -5 7 -9 16 -9 8 0 12 -4 9 -10 -3 -5 1 -10
10 -10 9 0 13 -4 10 -10 -3 -5 -1 -10 5 -10 5 0 18 -13 28 -28 9 -16 23 -27
31 -24 8 3 11 0 7 -6 -3 -6 9 -27 29 -46 19 -19 35 -43 35 -53 0 -15 2 -16 10
-3 8 13 10 13 10 -2 0 -9 5 -18 12 -20 9 -3 9 -6 0 -12 -7 -4 -12 -2 -12 3 0
6 -5 11 -11 11 -6 0 -17 7 -25 15 -9 8 -12 15 -7 15 4 0 -4 8 -20 18 -15 10
-25 20 -23 23 2 2 -6 13 -17 24 -11 12 -17 14 -13 5 4 -8 1 -6 -8 5 -30 39
-37 45 -47 39 -5 -3 -9 -2 -8 3 4 21 -2 33 -18 33 -9 0 -14 3 -10 6 8 8 -18
34 -34 34 -7 0 -10 3 -6 6 3 4 -16 28 -43 54 -28 27 -50 54 -50 61 0 7 -3 10
-6 6 -8 -7 -74 59 -74 74 0 7 -3 10 -6 6 -3 -3 -32 21 -65 54 -32 32 -63 59
-69 59 -6 0 -9 3 -7 8 3 4 -1 13 -9 20 -8 7 -14 9 -14 5 0 -4 -7 2 -15 14 -15
22 -76 47 -108 45 -11 0 -15 4 -10 11 4 7 -5 4 -20 -5 -31 -21 -41 -23 -32 -5
4 6 -3 1 -16 -13 -12 -14 -25 -24 -29 -23 -4 1 -7 -3 -8 -10 -1 -7 -3 -29 -6
-49 -3 -21 -1 -38 3 -38 4 0 7 -10 6 -22 -1 -13 7 -35 17 -50 11 -16 16 -28
12 -28 -4 0 1 -9 12 -20 32 -32 44 -49 44 -60 0 -6 5 -8 10 -5 6 3 10 3 10 -2
0 -12 73 -90 90 -96 11 -4 12 -6 1 -6 -11 -1 -11 -4 -1 -16 7 -8 18 -15 26
-15 7 0 16 -9 19 -20 3 -11 11 -20 16 -20 5 0 9 -7 9 -15 0 -8 3 -14 8 -12 4
1 8 -3 10 -8 2 -5 13 -15 25 -22 12 -7 19 -12 14 -13 -4 0 7 -15 25 -33 18
-18 39 -42 47 -54 8 -12 18 -20 23 -17 4 3 8 -2 8 -10 0 -9 5 -16 10 -16 6 0
10 -5 10 -11 0 -6 7 -17 15 -25 8 -9 15 -12 15 -7 0 4 7 -3 16 -15 8 -12 12
-27 8 -34 -4 -6 -3 -8 3 -5 6 4 22 -4 36 -17 20 -18 23 -26 14 -36 -9 -10 -8
-12 5 -7 12 4 23 -3 35 -23 9 -16 21 -26 26 -23 6 3 7 1 3 -6 -4 -6 0 -14 8
-17 9 -3 16 -12 16 -19 0 -7 6 -15 13 -18 9 -4 9 -7 -1 -18 -11 -12 -13 -12
-10 1 2 8 -2 14 -9 13 -7 -2 -10 4 -7 12 4 8 1 15 -6 15 -15 0 -100 87 -100
102 0 6 -3 9 -6 5 -8 -8 -34 18 -34 33 0 6 -4 8 -10 5 -6 -3 -10 1 -10 10 0 9
-5 13 -10 10 -5 -3 -10 -1 -10 5 0 18 -270 281 -282 274 -6 -4 -8 -3 -4 4 7
12 -33 44 -46 36 -4 -3 -8 0 -8 7 0 6 -8 9 -20 6 -14 -4 -20 0 -21 11 0 11 -2
12 -6 5 -2 -7 -13 -13 -23 -13 -19 0 -64 -53 -54 -63 3 -3 0 -15 -6 -27 -10
-18 -9 -21 1 -15 9 6 11 2 7 -13 -4 -12 -2 -22 4 -22 5 0 6 -5 3 -10 -3 -5 -1
-10 6 -10 7 0 10 -3 6 -6 -3 -4 -1 -12 6 -20 30 -33 35 -42 30 -48 -4 -3 -1
-6 6 -6 7 0 9 -5 6 -10 -4 -6 -3 -9 2 -8 10 4 53 -39 53 -53 0 -5 4 -7 10 -4
5 3 10 -1 10 -10 0 -9 5 -13 10 -10 6 4 10 3 9 -2 -4 -23 2 -35 17 -29 8 3 13
2 10 -3 -3 -4 3 -16 14 -26 11 -10 17 -22 13 -28 -3 -6 -1 -7 5 -3 7 4 12 2
12 -3 0 -6 20 -31 44 -55 25 -24 42 -47 39 -50 -4 -3 2 -6 12 -6 10 0 16 -3
12 -6 -3 -3 9 -21 26 -40 66 -71 77 -85 77 -93 0 -5 7 -12 16 -15 8 -3 12 -10
9 -16 -3 -5 2 -10 11 -10 10 0 14 -3 11 -7 -4 -3 6 -19 22 -34 16 -15 27 -30
24 -33 -3 -3 2 -8 11 -12 9 -3 14 -10 11 -14 -3 -4 2 -11 11 -14 8 -3 12 -10
9 -16 -3 -5 1 -10 10 -10 9 0 13 -4 10 -10 -3 -5 -1 -10 5 -10 6 0 9 -4 6 -9
-3 -5 3 -11 14 -14 11 -3 20 -13 20 -22 0 -9 5 -13 10 -10 6 3 10 1 10 -5 0
-14 72 -86 82 -82 5 1 7 -2 6 -7 -4 -11 59 -71 66 -64 3 4 6 1 6 -6 0 -16 26
-42 34 -34 3 4 6 -1 6 -10 0 -9 5 -19 12 -23 7 -5 9 -2 4 7 -4 8 2 3 13 -10
12 -13 21 -21 21 -17 0 3 9 -2 19 -11 11 -9 18 -20 15 -24 -2 -4 10 -12 26
-18 17 -5 30 -15 30 -22 0 -7 3 -10 6 -6 4 3 12 1 20 -6 39 -35 42 -37 47 -24
3 7 6 4 6 -5 1 -10 9 -18 19 -18 9 0 30 -7 46 -15 15 -8 35 -15 42 -15 8 0 14
-5 14 -10 0 -6 3 -9 8 -9 21 4 53 -2 49 -8 -3 -5 45 -8 106 -7 69 0 111 4 110
11 -1 5 4 10 12 10 8 0 12 -3 10 -7 -3 -4 11 0 30 8 19 9 31 20 28 25 -3 6 -1
7 5 3 7 -4 18 -4 25 1 6 4 18 8 26 10 8 1 17 5 20 10 3 4 15 15 25 23 15 11
18 11 12 1 -6 -8 0 -7 18 4 14 10 26 22 26 27 0 5 5 6 10 3 6 -3 10 -1 10 5 0
6 5 8 10 5 6 -3 10 -1 10 5 0 6 4 9 9 5 5 -3 12 4 16 15 4 11 11 18 16 15 5
-4 9 -1 9 4 0 6 7 11 16 11 8 0 13 4 10 8 -2 4 9 17 25 27 18 12 27 26 24 35
-4 8 -3 12 0 8 9 -9 45 23 45 40 0 7 4 11 9 8 8 -5 25 29 22 47 -1 4 6 7 14 7
9 0 12 6 8 17 -4 11 -3 14 5 9 8 -5 12 0 12 13 0 11 6 26 13 33 8 7 12 19 9
26 -2 6 0 12 6 12 5 0 9 7 10 15 1 8 3 22 4 30 1 8 5 15 9 15 5 0 6 7 3 15 -4
8 -1 15 5 15 6 0 8 7 5 15 -4 9 0 15 7 15 11 0 11 3 -1 10 -8 5 -10 10 -4 10
7 0 15 7 18 16 3 8 2 12 -4 9 -6 -3 -10 -2 -10 4 0 5 4 12 10 16 5 3 7 12 3
20 -3 8 0 15 7 15 10 0 10 3 0 15 -9 11 -9 15 -1 15 7 0 10 4 6 9 -3 5 -1 13
5 16 8 5 7 12 -2 23 -10 12 -10 14 0 8 6 -4 12 -3 12 3 0 5 -6 12 -12 14 -10
4 -9 6 1 6 11 1 11 4 0 18 -10 11 -10 14 -1 9 6 -4 12 -3 12 3 0 5 -4 13 -10
16 -5 3 -10 12 -10 18 0 7 4 6 10 -3 7 -12 9 -10 7 7 0 12 -5 19 -9 17 -4 -3
-9 6 -9 20 -2 38 -3 44 -11 51 -4 4 -4 13 -1 21 3 8 0 14 -7 14 -6 0 -8 5 -5
10 4 6 2 17 -4 24 -6 7 -12 25 -13 40 -1 14 -6 26 -11 26 -4 0 -5 5 -2 10 3 6
2 10 -4 10 -5 0 -8 11 -6 25 1 14 -1 25 -6 25 -5 0 -6 7 -3 15 4 8 1 22 -5 29
-9 10 -9 16 -1 21 7 4 8 11 1 18 -5 7 -8 33 -7 60 1 26 -2 47 -7 47 -4 0 -6 4
-3 9 4 5 0 12 -6 14 -10 4 -9 6 1 6 11 1 11 4 1 16 -10 12 -10 15 0 15 10 0
10 3 0 15 -7 8 -9 15 -4 15 5 0 2 5 -6 10 -13 9 -13 10 0 10 12 1 12 2 -2 10
-10 6 -14 18 -11 30 3 11 1 20 -4 20 -5 0 -8 16 -8 36 1 20 -5 42 -12 50 -12
12 -12 14 3 14 12 0 14 3 6 13 -5 6 -6 21 -2 32 4 11 3 28 -2 39 -7 12 -7 16
0 12 5 -3 13 1 16 10 9 23 8 26 -6 18 -10 -6 -10 -4 -2 7 6 8 11 31 10 51 -1
20 1 35 5 32 4 -2 10 0 13 5 4 5 2 12 -4 16 -6 4 -5 13 3 26 10 16 9 21 -3 29
-8 5 -10 10 -4 10 6 0 11 7 11 15 0 8 -5 15 -11 15 -7 0 -7 3 -1 8 14 10 17
32 4 32 -6 0 -8 7 -5 16 4 9 2 13 -5 8 -8 -4 -9 1 -4 15 4 12 2 21 -4 21 -6 0
-11 7 -11 16 0 8 -5 12 -10 9 -6 -4 -10 -3 -9 2 3 19 -2 43 -8 41 -18 -5 -53
14 -47 25 5 8 3 8 -6 0 -11 -10 -17 -10 -29 0 -12 9 -13 9 -7 0 6 -12 -11 -18
-36 -14 -5 0 -8 -4 -8 -9 0 -6 -9 -10 -21 -10 -11 0 -17 -4 -14 -10 3 -5 1
-10 -6 -10 -20 0 -78 -71 -71 -88 3 -10 1 -13 -6 -8 -8 5 -12 0 -12 -14 0 -13
-4 -19 -11 -14 -7 4 -7 -1 1 -16 11 -20 10 -22 -4 -17 -14 5 -15 3 -7 -10 6
-11 6 -24 -1 -36 -7 -15 -7 -18 2 -12 9 6 9 3 1 -13 -7 -14 -8 -29 -1 -46 5
-15 6 -26 1 -26 -10 0 -9 -56 2 -66 3 -4 2 -15 -3 -25 -7 -11 -7 -20 0 -24 5
-3 6 -13 3 -22 -5 -11 -3 -14 6 -8 10 6 11 3 1 -15 -8 -16 -9 -20 -1 -15 8 4
10 -4 8 -29 -3 -26 0 -39 12 -46 9 -5 11 -10 6 -10 -6 0 -11 -10 -12 -22 -1
-34 -8 -67 -16 -74 -4 -4 -7 -16 -7 -26 0 -10 -6 -25 -12 -32 -11 -12 -16 -12
-32 2 -11 10 -16 11 -12 5 4 -7 3 -13 -3 -13 -5 0 -11 5 -13 12 -2 6 -14 12
-26 13 -12 1 -31 12 -42 25 -11 13 -20 20 -20 17 0 -4 -8 1 -18 11 -11 9 -17
20 -15 25 2 4 -2 7 -10 7 -8 0 -22 11 -33 24 -10 14 -22 22 -28 19 -5 -4 -7 1
-3 10 4 11 1 17 -6 17 -7 0 -29 18 -48 41 -19 23 -42 50 -51 60 -10 10 -18 22
-18 25 0 4 -8 14 -18 23 -10 9 -21 24 -25 34 -3 9 -14 17 -23 17 -10 0 -15 3
-11 6 3 3 -15 25 -39 49 -24 24 -44 47 -44 51 0 4 -29 35 -65 70 -36 35 -65
68 -65 73 0 5 -9 13 -20 16 -11 4 -18 10 -16 14 3 4 -8 18 -25 31 -16 14 -29
29 -29 33 0 13 -27 37 -34 30 -3 -4 -6 -1 -6 6 0 15 -57 71 -64 63 -3 -3 -6 2
-6 12 0 9 -4 15 -8 12 -5 -3 -15 4 -22 15 -8 10 -20 19 -27 19 -7 0 -13 3 -13
8 0 4 -11 12 -25 19 -14 6 -23 7 -19 2 3 -5 0 -9 -5 -9 -6 0 -11 4 -11 8 0 4
-16 8 -35 9 -19 0 -35 -3 -35 -8z m506 -817 c-3 -3 -1 -11 6 -19 18 -22 3 -25
-21 -4 -24 21 -21 44 5 34 8 -3 12 -8 10 -11z m29 -52 c-3 -5 -1 -10 6 -10 7
0 10 -3 6 -6 -9 -9 -28 6 -22 17 4 5 8 9 11 9 3 0 2 -4 -1 -10z"/>
<path d="M180 1059 c0 -5 6 -7 13 -3 9 5 9 4 0 -6 -10 -11 -7 -18 12 -35 17
-17 20 -26 12 -34 -8 -8 -5 -11 13 -11 13 0 20 -3 17 -7 -4 -3 1 -12 11 -20
11 -9 12 -12 2 -7 -8 3 -2 -6 15 -22 16 -16 33 -28 38 -26 5 1 6 -1 3 -6 -5
-9 22 -40 59 -68 11 -9 13 -12 5 -8 -8 4 -4 -5 9 -19 27 -30 41 -37 20 -9 -13
15 -12 16 4 3 9 -7 17 -20 17 -28 0 -10 6 -13 16 -9 8 3 13 2 11 -2 -3 -4 1
-13 9 -20 8 -7 14 -9 14 -5 0 4 5 0 11 -9 5 -10 19 -18 30 -18 11 0 17 -4 14
-10 -3 -5 -1 -10 4 -10 6 0 11 6 12 13 0 6 3 4 7 -5 6 -14 10 -14 24 -4 15 11
16 15 3 34 -8 11 -28 23 -45 27 -16 4 -33 11 -36 17 -5 7 -2 8 7 4 8 -4 5 -1
-5 8 -10 8 -23 13 -27 10 -5 -3 -9 2 -9 11 0 9 -4 13 -10 10 -5 -3 -10 1 -10
9 0 14 -11 20 -32 17 -4 0 -5 6 -2 14 4 9 0 15 -9 15 -9 0 -19 10 -22 21 -6
17 -9 19 -17 8 -7 -10 -8 -8 -5 8 3 13 0 21 -6 20 -6 -1 -11 3 -12 10 0 6 -4
15 -9 20 -5 5 -6 3 -2 -4 5 -9 2 -11 -8 -7 -9 3 -13 10 -10 15 3 5 -6 20 -20
34 -15 14 -26 29 -26 33 0 4 -11 19 -24 35 -23 26 -66 37 -66 16z"/>
<path d="M27 973 c-7 -13 12 -55 22 -49 5 3 7 -3 4 -14 -4 -14 0 -20 11 -20
10 0 15 -4 12 -8 -3 -5 4 -15 15 -22 10 -8 19 -20 19 -27 0 -7 5 -13 10 -13 6
0 10 -5 10 -11 0 -6 14 -24 31 -40 17 -16 27 -29 23 -29 -5 0 -1 -5 9 -11 9
-6 15 -14 12 -20 -3 -5 1 -6 10 -3 10 4 15 2 13 -7 -2 -8 3 -13 10 -12 11 3
16 -9 13 -29 0 -5 8 -8 19 -8 11 0 19 -6 18 -12 -2 -7 3 -12 9 -10 7 1 13 -4
13 -12 0 -8 9 -17 19 -21 11 -3 23 -15 26 -26 4 -11 9 -18 12 -15 3 3 18 -3
33 -14 15 -11 30 -16 34 -13 4 4 4 0 0 -10 -5 -13 -2 -16 12 -10 13 5 15 3 9
-8 -4 -8 -5 -11 -1 -7 5 4 19 3 32 -2 16 -6 24 -6 24 1 0 6 4 8 9 4 6 -3 9 4
8 15 -1 11 -7 20 -15 20 -7 0 -11 4 -7 9 3 6 -4 8 -15 6 -11 -2 -20 1 -20 7 0
5 -7 8 -14 5 -10 -4 -13 -1 -9 9 4 12 -7 19 -29 15 -4 0 -12 8 -18 19 -6 11
-15 18 -19 15 -5 -3 -12 2 -15 11 -3 8 -10 12 -16 9 -6 -4 -7 1 -3 11 5 14 3
16 -11 11 -10 -4 -15 -3 -11 3 3 6 1 10 -5 10 -6 0 -8 5 -5 10 3 6 1 10 -6 10
-12 0 -49 38 -49 50 0 4 -15 18 -34 31 -19 13 -33 26 -31 30 2 3 -11 22 -30
42 -19 21 -35 44 -35 53 0 8 -5 12 -10 9 -5 -3 -10 1 -10 9 0 30 -70 80 -83
59z"/>
</g>
</svg>
